<?xml version="1.0" encoding="UTF-8" standalone="no"?>
<svg width="93px" height="93px" viewBox="0 0 93 93" version="1.1" xmlns="http://www.w3.org/2000/svg" xmlns:xlink="http://www.w3.org/1999/xlink">
    <!-- Generator: Sketch 46.2 (44496) - http://www.bohemiancoding.com/sketch -->
    <title>brain</title>
    <desc>Created with Sketch.</desc>
    <defs></defs>
    <g id="Page-1" stroke="none" stroke-width="1" fill="none" fill-rule="evenodd">
        <g id="HOME---redesign" transform="translate(-668.000000, -1107.000000)" fill-rule="nonzero" fill="#000000">
            <g id="ABOUT-ME" transform="translate(358.000000, 1107.000000)">
                <g id="brain" transform="translate(310.000000, 0.000000)">
                    <g id="Group">
                        <g id="Shape">
                            <g>
                                <path d="M44.5053572,6.06521739 L44.5053572,82.8913043 C44.5053572,84.0078801 45.410015,84.9130435 46.5259673,84.9130435 C47.6419195,84.9130435 48.5465774,84.0078801 48.5465774,82.8913043 L48.5465774,6.06521739 C48.5465774,4.94864172 47.6419195,4.04347826 46.5259673,4.04347826 C45.410015,4.04347826 44.5053572,4.94864172 44.5053572,6.06521739 Z"></path>
                                <path d="M66.6035007,39.2596807 C73.0758822,37.8273131 76.2630779,30.3758995 74.1298062,25.010169 C73.7173233,23.9726677 72.5423486,23.466177 71.5054265,23.8788905 C70.4685047,24.2916038 69.962297,25.4672351 70.3747799,26.5047364 C71.6413929,29.6905958 69.6037196,34.4545157 65.7307527,35.3116209 C64.6411347,35.5527583 63.9531965,36.6320421 64.1941991,37.7222687 C64.4352017,38.8124953 65.513883,39.5008181 66.6035007,39.2596807 Z"></path>
                                <path d="M33.6226345,34.1456807 C27.1502532,32.7133132 23.9630573,25.2618996 26.0963291,19.8961691 C26.508812,18.8586678 27.6837868,18.3521771 28.7207087,18.7648905 C29.7576306,19.1776039 30.2638384,20.3532352 29.8513555,21.3907365 C28.5847425,24.5765959 30.6224157,29.3405157 34.4953826,30.197621 C35.5850004,30.4387584 36.2729388,31.5180421 36.0319361,32.6082687 C35.7909333,33.6984953 34.7122523,34.3868181 33.6226345,34.1456807 Z"></path>
                                <path d="M57.0697154,60.2380983 C63.5420965,58.8057309 66.7292926,51.3543174 64.5960209,45.9885865 C64.1835376,44.9510854 63.0085629,44.4445949 61.9716412,44.8573082 C60.934719,45.2700216 60.4285113,46.4456528 60.8409942,47.4831539 C62.1076072,50.6690133 60.0699342,55.4329334 56.196967,56.2900384 C55.1073493,56.5311761 54.4194108,57.6104597 54.6604138,58.7006862 C54.9014164,59.790913 55.9800973,60.4792356 57.0697154,60.2380983 Z"></path>
                                <path d="M38.5458935,70.1109237 C32.0735121,68.6785559 28.8863163,61.2271424 31.019588,55.8614119 C31.4320709,54.8239108 32.6070457,54.3174199 33.6439676,54.7301333 C34.6808895,55.1428466 35.1870973,56.3184782 34.7746144,57.3559794 C33.5080014,60.5418387 35.5456746,65.3057585 39.4186415,66.1628638 C40.5082594,66.4040011 41.1961979,67.4832851 40.9551949,68.5735116 C40.7141923,69.6637381 39.6355112,70.352061 38.5458935,70.1109237 Z"></path>
                                <path d="M75.9476699,14.275092 C73.3637796,5.85632261 65.565603,0 56.6290179,0 C52.4976853,0 48.5471484,1.24534958 45.2112121,3.53505066 C44.2909729,4.16667916 44.0567215,5.42513329 44.6879973,6.34588662 C45.3192731,7.26663995 46.5770245,7.50102191 47.4972637,6.86939341 C50.1654716,5.03800413 53.3203379,4.04347826 56.6290179,4.04347826 C63.778343,4.04347826 70.0181237,8.72946716 72.0845046,15.4621007 C72.4121049,16.5294803 73.5424767,17.1290415 74.6092602,16.8012581 C75.6760438,16.4734747 76.2752702,15.3424716 75.9476699,14.275092 Z"></path>
                                <path d="M68.7526786,60.6521739 C82.1441044,60.6521739 93,49.7902126 93,36.3913043 C93,25.2005616 85.3649222,15.5398667 74.6636801,12.8569294 C73.5811932,12.5855363 72.48378,13.2435477 72.2125382,14.3266392 C71.9412967,15.4097306 72.5989407,16.5077573 73.6814272,16.7791504 C82.595006,19.0138978 88.9587798,27.0660064 88.9587798,36.3913043 C88.9587798,47.557061 79.9121999,56.6086957 68.7526786,56.6086957 C67.6367263,56.6086957 66.7320685,57.513859 66.7320685,58.6304348 C66.7320685,59.7470106 67.6367263,60.6521739 68.7526786,60.6521739 Z"></path>
                                <path d="M83.5103941,65.7492387 C86.9222529,63.0850349 88.9587798,59.0021893 88.9587798,54.5869565 C88.9587798,52.947261 88.6791689,51.342958 88.1385143,49.8277519 C87.7632947,48.7761843 86.6071315,48.2280658 85.5561511,48.603495 C84.5051708,48.9789243 83.9573583,50.1357335 84.3325779,51.1873011 C84.7180792,52.2676841 84.9175595,53.412227 84.9175595,54.5869565 C84.9175595,57.7432997 83.4648649,60.6556731 81.0240641,62.5616111 C80.1443167,63.2485758 79.9877243,64.5190456 80.6743054,65.3992845 C81.3608864,66.2795234 82.6306467,66.4362034 83.5103941,65.7492387 Z"></path>
                                <path d="M52.5877976,68.7391304 C52.5877976,77.671736 59.8250614,84.9130435 68.7526786,84.9130435 C77.6802958,84.9130435 84.9175595,77.671736 84.9175595,68.7391304 C84.9175595,66.851676 84.5934973,65.0057101 83.9671373,63.2635783 C83.5893866,62.2129185 82.4319068,61.6675888 81.3818333,62.0455509 C80.3317602,62.4235126 79.7867354,63.5816391 80.164486,64.632299 C80.6335497,65.9369325 80.8763393,67.319944 80.8763393,68.7391304 C80.8763393,75.4385844 75.4483913,80.8695652 68.7526786,80.8695652 C62.0569659,80.8695652 56.6290179,75.4385844 56.6290179,68.7391304 C56.6290179,67.6225546 55.72436,66.7173913 54.6084078,66.7173913 C53.4924555,66.7173913 52.5877976,67.6225546 52.5877976,68.7391304 Z"></path>
                                <path d="M44.5053572,80.8695652 C44.5053572,87.5690192 49.9333052,93 56.6290179,93 C62.462194,93 67.4368536,88.849019 68.53184,83.1842228 C68.7437439,82.0879619 68.0273268,81.027389 66.9316781,80.8153668 C65.8360293,80.603345 64.7760488,81.3201619 64.564145,82.4164229 C63.83511,86.1880088 60.5172416,88.9565217 56.6290179,88.9565217 C52.1652093,88.9565217 48.5465774,85.335868 48.5465774,80.8695652 C48.5465774,79.7529894 47.6419195,78.8478261 46.5259673,78.8478261 C45.410015,78.8478261 44.5053572,79.7529894 44.5053572,80.8695652 Z"></path>
                                <path d="M17.1046111,14.275092 C19.6885013,5.85632261 27.4866779,0 36.423263,0 C40.5545956,0 44.5051325,1.24534958 47.8410689,3.53505066 C48.7613081,4.16667916 48.9955594,5.42513329 48.3642836,6.34588662 C47.7330078,7.26663995 46.4752564,7.50102191 45.5550173,6.86939341 C42.8868093,5.03800413 39.7319432,4.04347826 36.423263,4.04347826 C29.273938,4.04347826 23.0341573,8.72946716 20.9677762,15.4621007 C20.6401758,16.5294803 19.5098044,17.1290415 18.4430207,16.8012581 C17.3762372,16.4734747 16.7770108,15.3424716 17.1046111,14.275092 Z"></path>
                                <path d="M5.08519748,51.1922709 C1.84079701,46.9816312 0.0514557796,41.8198999 0.0514557796,36.3913043 C0.0514557796,25.2005616 7.68653349,15.5398667 18.3877758,12.8569294 C19.4702624,12.5855363 20.5676759,13.2435477 20.8389175,14.3266392 C21.1101591,15.4097306 20.452515,16.5077573 19.3700285,16.7791504 C10.4564496,19.0138978 4.09267601,27.0660064 4.09267601,36.3913043 C4.09267601,40.9187263 5.5817174,45.2141796 8.28569693,48.7234513 C8.9670619,49.6077385 8.80296116,50.8772593 7.91916763,51.5590051 C7.0353741,52.2407505 5.76656245,52.0765582 5.08519748,51.1922709 Z"></path>
                                <path d="M8.92888065,68.1459198 C5.85689916,65.1257375 4.09292608,61.0048307 4.09292608,56.6086957 C4.09292608,47.6760901 11.3301898,40.4347826 20.257807,40.4347826 C23.4463736,40.4347826 26.5024248,41.3623129 29.1134322,43.0758577 C30.0465668,43.6882526 30.3068548,44.9415747 29.6948017,45.8752309 C29.0827486,46.8088866 27.8301265,47.0693201 26.8969918,46.4569252 C24.9395816,45.1723211 22.6527731,44.4782609 20.257807,44.4782609 C13.5620941,44.4782609 8.13414632,49.9092417 8.13414632,56.6086957 C8.13414632,59.9089017 9.45483229,62.9942232 11.7612507,65.2617509 C12.5572471,66.0443252 12.5684821,67.3243704 11.7863447,68.1208114 C11.0042073,68.9172529 9.72487709,68.9284942 8.92888065,68.1459198 Z"></path>
                                <path d="M26.2388124,84.7975909 C25.5981439,84.8743539 24.9507524,84.9130435 24.2990564,84.9130435 C15.3714391,84.9130435 8.13417542,77.671736 8.13417542,68.7391304 C8.13417542,67.7420334 8.22459348,66.7554526 8.40295411,65.7882085 C8.60543411,64.690166 9.65921878,63.964261 10.7566481,64.1668542 C11.8540774,64.369447 12.5795771,65.4238207 12.3770972,66.5218633 C12.2433082,67.2473959 12.1753957,67.9884122 12.1753957,68.7391304 C12.1753957,75.4385844 17.6033434,80.8695652 24.2990564,80.8695652 C24.7900668,80.8695652 25.2770067,80.8404647 25.7583086,80.7827962 C26.8663444,80.6500347 27.8721493,81.4411525 28.0048367,82.5498075 C28.1375242,83.6584622 27.3468482,84.6648293 26.2388124,84.7975909 Z"></path>
                                <path d="M30.5806009,70.2383749 C26.7385395,72.3558729 24.299256,76.3991094 24.299256,80.8695652 C24.299256,87.5690192 29.7272038,93 36.4229167,93 C43.1186294,93 48.5465774,87.5690192 48.5465774,80.8695652 C48.5465774,79.7529894 47.6419195,78.8478261 46.5259673,78.8478261 C45.410015,78.8478261 44.5053572,79.7529894 44.5053572,80.8695652 C44.5053572,85.335868 40.8867253,88.9565217 36.4229167,88.9565217 C31.9591081,88.9565217 28.3404762,85.335868 28.3404762,80.8695652 C28.3404762,77.8876549 29.965858,75.1935019 32.5303908,73.7800956 C33.5078639,73.2413753 33.863787,72.011815 33.3253674,71.0337959 C32.7869478,70.0557763 31.558074,69.6996547 30.5806009,70.2383749 Z"></path>
                            </g>
                        </g>
                    </g>
                </g>
            </g>
        </g>
    </g>
</svg>