<?xml version="1.0" encoding="UTF-8" standalone="no"?>
<svg width="62px" height="96px" viewBox="0 0 62 96" version="1.1" xmlns="http://www.w3.org/2000/svg" xmlns:xlink="http://www.w3.org/1999/xlink">
    <!-- Generator: Sketch 46.2 (44496) - http://www.bohemiancoding.com/sketch -->
    <title>compass</title>
    <desc>Created with Sketch.</desc>
    <defs></defs>
    <g id="Page-1" stroke="none" stroke-width="1" fill="none" fill-rule="evenodd">
        <g id="HOME---redesign" transform="translate(-684.000000, -2005.000000)" fill-rule="nonzero" fill="#000000">
            <g id="compass" transform="translate(684.000000, 2005.000000)">
                <g id="Group">
                    <path d="M31,32.448 C33.8084696,32.448 36.0910981,30.152 36.0910981,27.332 C36.0910981,24.512 33.8084696,22.22 31,22.22 C28.1915304,22.22 25.9089019,24.512 25.9089019,27.332 C25.9089019,30.152 28.1915304,32.448 31,32.448 Z M31,25.42 C32.0516822,25.42 32.9041822,26.276 32.9041822,27.332 C32.9041822,28.388 32.0516822,29.248 31,29.248 C29.9483178,29.248 29.0918341,28.388 29.0918341,27.332 C29.0918341,26.276 29.9483178,25.42 31,25.42 Z" id="Shape"></path>
                    <path d="M61.7776402,38.148 C61.7776402,37.264 61.0645678,36.548 60.1841822,36.548 C59.3037967,36.548 58.5907243,37.268 58.5907243,38.148 C58.5907243,46.848 54.5712266,54.612 48.3089369,59.692 L40.8794393,34.724 C42.4211098,32.652 43.3692173,30.112 43.3692173,27.332 C43.3692173,22.208 40.2579907,17.8 35.8361449,15.904 L35.8361449,5.14 C35.8361449,2.46 33.6690421,0.28 31.0039836,0.28 C28.3389252,0.28 26.1678388,2.46 26.1678388,5.14 L26.1678388,15.904 C21.745993,17.8 18.63875,22.204 18.63875,27.328 C18.63875,30.132 19.6027921,32.688 21.1683645,34.768 L13.1413201,59.216 C7.20170561,54.132 3.41724299,46.576 3.41724299,38.144 C3.41724299,37.26 2.70417056,36.544 1.82378505,36.544 C0.943399533,36.544 0.230327103,37.264 0.230327103,38.144 C0.230327103,48.016 4.87924065,56.8 12.0776869,62.46 L5.38117991,82.852 C4.81948598,84.556 5.38516355,86.364 6.65992991,87.472 L4.66014019,92.744 C4.34543224,93.572 4.75973131,94.496 5.58434579,94.812 C5.76759346,94.884 5.96279206,94.916 6.15002336,94.916 C6.79139019,94.916 7.39690421,94.52 7.63990654,93.884 L9.67953271,88.5 C11.4044509,88.412 12.9899416,87.304 13.5596028,85.56 L19.6983995,66.86 C22.7299533,68.068 25.9965421,68.792 29.4105257,68.968 L29.4105257,78.216 C29.4105257,79.1 30.1235981,79.816 31.0039836,79.816 C31.8843692,79.816 32.5974416,79.096 32.5974416,78.216 L32.5974416,68.968 C35.7246028,68.808 38.7242874,68.18 41.5367407,67.144 L47.0580724,85.704 C47.388715,86.808 48.1296729,87.724 49.1415187,88.272 C49.7589836,88.604 50.4322196,88.772 51.1134229,88.784 L52.8423248,94.572 C53.0494743,95.264 53.6828738,95.712 54.3680607,95.712 C54.5194393,95.712 54.6748014,95.688 54.8261799,95.64 C55.6707126,95.388 56.14875,94.496 55.8977804,93.648 L54.085222,87.6 C54.4238318,87.284 54.746507,86.944 54.9695911,86.524 C55.5153505,85.508 55.6348598,84.336 55.3082009,83.232 L49.2769626,62.956 C56.8419042,57.32 61.7776402,48.312 61.7776402,38.148 Z M29.350771,5.14 C29.350771,4.224 30.091729,3.484 31,3.484 C31.908271,3.484 32.649229,4.228 32.649229,5.14 L32.649229,15.08 C32.1034696,15.008 31.5656776,14.916 31,14.916 C30.4343224,14.916 29.8965304,15.008 29.350771,15.084 L29.350771,5.14 Z M31,18.116 C36.0632126,18.116 40.1783178,22.248 40.1783178,27.332 C40.1783178,32.416 36.0632126,36.548 31,36.548 C25.9367874,36.548 21.8216822,32.416 21.8216822,27.332 C21.8216822,22.248 25.9367874,18.116 31,18.116 Z M10.5280491,84.568 C10.3368341,85.156 9.69945093,85.484 9.11783879,85.284 C8.53224299,85.088 8.20956776,84.452 8.40078271,83.864 L14.7985164,64.38 C15.4478505,64.784 16.1011682,65.176 16.7783879,65.536 L10.5280491,84.568 Z M17.78625,62.46 C17.113014,62.088 16.4596963,61.684 15.8223131,61.26 L23.6900117,37.296 C24.3074766,37.752 24.964778,38.148 25.6579322,38.484 L17.78625,62.46 Z M32.5934579,65.772 L32.5934579,56.684 C32.5934579,55.8 31.8803855,55.084 31,55.084 C30.1196145,55.084 29.4065421,55.804 29.4065421,56.684 L29.4065421,65.772 C26.3431192,65.596 23.4111565,64.932 20.6943107,63.828 L28.677535,39.516 C29.4304439,39.66 30.203271,39.752 31,39.752 C31.7927453,39.752 32.5615888,39.66 33.310514,39.516 L40.6205023,64.08 C38.0948715,65.028 35.4019276,65.608 32.5934579,65.772 Z M36.3301168,38.488 C37.0312383,38.148 37.6925234,37.752 38.313972,37.292 L45.560222,61.64 C44.9108879,62.048 44.2456192,62.432 43.5604322,62.788 L36.3301168,38.488 Z M52.256729,84.144 C52.4320093,84.736 52.0933995,85.368 51.4998364,85.548 C51.2209813,85.632 50.9142407,85.6 50.6513201,85.464 C50.3883995,85.32 50.1932009,85.08 50.1095444,84.796 L44.4846379,65.888 C45.1738084,65.548 45.8430607,65.192 46.5003621,64.804 L52.256729,84.144 Z" id="Shape"></path>
                </g>
            </g>
        </g>
    </g>
</svg>